<?xml version="1.0" encoding="UTF-8" standalone="no"?>
<!DOCTYPE svg PUBLIC "-//W3C//DTD SVG 1.1//EN"
 "http://www.w3.org/Graphics/SVG/1.1/DTD/svg11.dtd">
<!-- Generated by graphviz version 13.1.0 (20250701.0955)
 -->
<!-- Title: sgp40_algorithm_init Pages: 1 -->
<svg width="420pt" height="40pt"
 viewBox="0.00 0.00 420.00 40.00" xmlns="http://www.w3.org/2000/svg" xmlns:xlink="http://www.w3.org/1999/xlink">
<g id="graph0" class="graph" transform="scale(1 1) rotate(0) translate(4 36)">
<title>sgp40_algorithm_init</title>
<!-- Node1 -->
<g id="Node000001" class="node">
<title>Node1</title>
<g id="a_Node000001"><a xlink:title="algorithm init">
<polygon fill="#999999" stroke="#666666" points="105.25,-26 0,-26 0,-6 105.25,-6 105.25,-26"/>
<text xml:space="preserve" text-anchor="middle" x="52.62" y="-12.5" font-family="Helvetica,sans-Serif" font-size="10.00">sgp40_algorithm_init</text>
</a>
</g>
</g>
<!-- Node2 -->
<g id="Node000002" class="node">
<title>Node2</title>
<g id="a_Node000002"><a xlink:href="group__sgp40__algorithm.html#gaeec135f2825d519a7d7d86d9ed0a5562" target="_top" xlink:title="algorithm init with sampling interval">
<polygon fill="white" stroke="#666666" points="261.5,-32 141.25,-32 141.25,0 261.5,0 261.5,-32"/>
<text xml:space="preserve" text-anchor="start" x="149.25" y="-18.5" font-family="Helvetica,sans-Serif" font-size="10.00">sgp40_algorithm_init</text>
<text xml:space="preserve" text-anchor="middle" x="201.38" y="-6.5" font-family="Helvetica,sans-Serif" font-size="10.00">_with_sampling_interval</text>
</a>
</g>
</g>
<!-- Node1&#45;&gt;Node2 -->
<g id="edge1_Node000001_Node000002" class="edge">
<title>Node1&#45;&gt;Node2</title>
<g id="a_edge1_Node000001_Node000002"><a xlink:title=" ">
<path fill="none" stroke="#63b8ff" d="M105.36,-16C113.16,-16 121.31,-16 129.43,-16"/>
<polygon fill="#63b8ff" stroke="#63b8ff" points="129.32,-19.5 139.32,-16 129.32,-12.5 129.32,-19.5"/>
</a>
</g>
</g>
<!-- Node3 -->
<g id="Node000003" class="node">
<title>Node3</title>
<g id="a_Node000003"><a xlink:href="group__sgp40__algorithm.html#gad23a6170fb5a828b50bf5f519f4d5d12" target="_top" xlink:title="algorithm reset">
<polygon fill="white" stroke="#666666" points="411.75,-26 297.5,-26 297.5,-6 411.75,-6 411.75,-26"/>
<text xml:space="preserve" text-anchor="middle" x="354.62" y="-12.5" font-family="Helvetica,sans-Serif" font-size="10.00">sgp40_algorithm_reset</text>
</a>
</g>
</g>
<!-- Node2&#45;&gt;Node3 -->
<g id="edge2_Node000002_Node000003" class="edge">
<title>Node2&#45;&gt;Node3</title>
<g id="a_edge2_Node000002_Node000003"><a xlink:title=" ">
<path fill="none" stroke="#63b8ff" d="M261.72,-16C269.71,-16 277.95,-16 286.07,-16"/>
<polygon fill="#63b8ff" stroke="#63b8ff" points="285.9,-19.5 295.9,-16 285.9,-12.5 285.9,-19.5"/>
</a>
</g>
</g>
</g>
</svg>
