<?xml version="1.0" encoding="UTF-8" standalone="no"?>
<!DOCTYPE svg PUBLIC "-//W3C//DTD SVG 1.1//EN"
 "http://www.w3.org/Graphics/SVG/1.1/DTD/svg11.dtd">
<!-- Generated by graphviz version 14.1.1 (20251213.1925)
 -->
<!-- Title: sgp40_basic_read Pages: 1 -->
<svg width="276pt" height="216pt"
 viewBox="0.00 0.00 276.00 216.00" xmlns="http://www.w3.org/2000/svg" xmlns:xlink="http://www.w3.org/1999/xlink">
<g id="graph0" class="graph" transform="scale(1 1) rotate(0) translate(4 212)">
<title>sgp40_basic_read</title>
<!-- Node1 -->
<g id="Node000001" class="node">
<title>Node1</title>
<g id="a_Node000001"><a xlink:title="basic example read">
<polygon fill="#999999" stroke="#666666" points="94.75,-126 0,-126 0,-106 94.75,-106 94.75,-126"/>
<text xml:space="preserve" text-anchor="middle" x="47.38" y="-112.5" font-family="Helvetica,sans-Serif" font-size="10.00">sgp40_basic_read</text>
</a>
</g>
</g>
<!-- Node2 -->
<g id="Node000002" class="node">
<title>Node2</title>
<g id="a_Node000002"><a xlink:href="group__sgp40__algorithm.html#ga7e6d083b1c5b5bc9ba0ca5c486432ce0" target="_top" xlink:title="algorithm process">
<polygon fill="white" stroke="#666666" points="262.62,-208 135.62,-208 135.62,-188 262.62,-188 262.62,-208"/>
<text xml:space="preserve" text-anchor="middle" x="199.12" y="-194.5" font-family="Helvetica,sans-Serif" font-size="10.00">sgp40_algorithm_process</text>
</a>
</g>
</g>
<!-- Node1&#45;&gt;Node2 -->
<g id="edge1_Node000001_Node000002" class="edge">
<title>Node1&#45;&gt;Node2</title>
<g id="a_edge1_Node000001_Node000002"><a xlink:title=" ">
<path fill="none" stroke="#63b8ff" d="M59.18,-126.46C74.1,-140.36 102.41,-164.82 130.75,-179 134.22,-180.74 137.88,-182.34 141.62,-183.81"/>
<polygon fill="#63b8ff" stroke="#63b8ff" points="140.28,-187.05 150.88,-187.1 142.63,-180.45 140.28,-187.05"/>
</a>
</g>
</g>
<!-- Node3 -->
<g id="Node000003" class="node">
<title>Node3</title>
<g id="a_Node000003"><a xlink:href="group__sgp40__base__driver.html#ga03825456aa090a6440d6f7cf0e454791" target="_top" xlink:title="get the measure raw result">
<polygon fill="white" stroke="#666666" points="261.5,-170 136.75,-170 136.75,-150 261.5,-150 261.5,-170"/>
<text xml:space="preserve" text-anchor="middle" x="199.12" y="-156.5" font-family="Helvetica,sans-Serif" font-size="10.00">sgp40_get_measure_raw</text>
</a>
</g>
</g>
<!-- Node1&#45;&gt;Node3 -->
<g id="edge2_Node000001_Node000003" class="edge">
<title>Node1&#45;&gt;Node3</title>
<g id="a_edge2_Node000001_Node000003"><a xlink:title=" ">
<path fill="none" stroke="#63b8ff" d="M82.4,-126.49C97.23,-131.02 114.83,-136.34 130.75,-141 136.95,-142.82 143.48,-144.7 149.94,-146.54"/>
<polygon fill="#63b8ff" stroke="#63b8ff" points="148.64,-149.8 159.21,-149.17 150.55,-143.07 148.64,-149.8"/>
</a>
</g>
</g>
<!-- Node4 -->
<g id="Node000004" class="node">
<title>Node4</title>
<g id="a_Node000004"><a xlink:href="group__sgp40__base__driver.html#ga8950d9206d3376a7f52378f80f0c509d" target="_top" xlink:title="convert the humidity to the register data">
<polygon fill="white" stroke="#666666" points="260,-132 138.25,-132 138.25,-100 260,-100 260,-132"/>
<text xml:space="preserve" text-anchor="start" x="146.25" y="-118.5" font-family="Helvetica,sans-Serif" font-size="10.00">sgp40_humidity_convert</text>
<text xml:space="preserve" text-anchor="middle" x="199.12" y="-106.5" font-family="Helvetica,sans-Serif" font-size="10.00">_to_register</text>
</a>
</g>
</g>
<!-- Node1&#45;&gt;Node4 -->
<g id="edge3_Node000001_Node000004" class="edge">
<title>Node1&#45;&gt;Node4</title>
<g id="a_edge3_Node000001_Node000004"><a xlink:title=" ">
<path fill="none" stroke="#63b8ff" d="M94.94,-116C104.9,-116 115.64,-116 126.31,-116"/>
<polygon fill="#63b8ff" stroke="#63b8ff" points="126.29,-119.5 136.29,-116 126.29,-112.5 126.29,-119.5"/>
</a>
</g>
</g>
<!-- Node5 -->
<g id="Node000005" class="node">
<title>Node5</title>
<g id="a_Node000005"><a xlink:href="group__sgp40__interface__driver.html#gaf2eca84fc4ceec45d0e5474afc1a5b84" target="_top" xlink:title="interface print format data">
<polygon fill="white" stroke="#666666" points="257.38,-82 140.88,-82 140.88,-50 257.38,-50 257.38,-82"/>
<text xml:space="preserve" text-anchor="start" x="148.88" y="-68.5" font-family="Helvetica,sans-Serif" font-size="10.00">sgp40_interface_debug</text>
<text xml:space="preserve" text-anchor="middle" x="199.12" y="-56.5" font-family="Helvetica,sans-Serif" font-size="10.00">_print</text>
</a>
</g>
</g>
<!-- Node1&#45;&gt;Node5 -->
<g id="edge4_Node000001_Node000005" class="edge">
<title>Node1&#45;&gt;Node5</title>
<g id="a_edge4_Node000001_Node000005"><a xlink:title=" ">
<path fill="none" stroke="#63b8ff" d="M79.77,-105.52C96.63,-99.89 117.99,-92.76 137.91,-86.1"/>
<polygon fill="#63b8ff" stroke="#63b8ff" points="138.98,-89.44 147.36,-82.95 136.76,-82.8 138.98,-89.44"/>
</a>
</g>
</g>
<!-- Node6 -->
<g id="Node000006" class="node">
<title>Node6</title>
<g id="a_Node000006"><a xlink:href="group__sgp40__base__driver.html#gacdfff4e9b06df02f31569839c048d214" target="_top" xlink:title="convert the temperature to the register data">
<polygon fill="white" stroke="#666666" points="267.5,-32 130.75,-32 130.75,0 267.5,0 267.5,-32"/>
<text xml:space="preserve" text-anchor="start" x="138.75" y="-18.5" font-family="Helvetica,sans-Serif" font-size="10.00">sgp40_temperature_convert</text>
<text xml:space="preserve" text-anchor="middle" x="199.12" y="-6.5" font-family="Helvetica,sans-Serif" font-size="10.00">_to_register</text>
</a>
</g>
</g>
<!-- Node1&#45;&gt;Node6 -->
<g id="edge5_Node000001_Node000006" class="edge">
<title>Node1&#45;&gt;Node6</title>
<g id="a_edge5_Node000001_Node000006"><a xlink:title=" ">
<path fill="none" stroke="#63b8ff" d="M57.28,-105.67C71.42,-89.82 100.52,-59.41 130.75,-41 132.87,-39.71 135.07,-38.47 137.32,-37.27"/>
<polygon fill="#63b8ff" stroke="#63b8ff" points="138.62,-40.54 146.09,-33.03 135.56,-34.24 138.62,-40.54"/>
</a>
</g>
</g>
</g>
</svg>
